<mxfile host="app.diagrams.net" modified="2022-12-28T18:36:56.957Z" agent="5.0 (Windows NT 10.0; Win64; x64) AppleWebKit/537.36 (KHTML, like Gecko) Chrome/108.0.0.0 Safari/537.36" etag="0vjizE_o6t5iAUjjbcDZ" version="20.7.4" type="github">
  <diagram id="IazaFQufbwxDpcyIUHQd" name="Page-1">
    <mxGraphModel dx="2462" dy="937" grid="1" gridSize="10" guides="1" tooltips="1" connect="1" arrows="1" fold="1" page="1" pageScale="1" pageWidth="1100" pageHeight="850" math="0" shadow="0">
      <root>
        <mxCell id="0" />
        <mxCell id="1" parent="0" />
        <mxCell id="ufJkwKuwfb9cW5SKuPvF-18" style="edgeStyle=orthogonalEdgeStyle;rounded=0;orthogonalLoop=1;jettySize=auto;html=1;exitX=0.25;exitY=0;exitDx=0;exitDy=0;entryX=0.5;entryY=1;entryDx=0;entryDy=0;" edge="1" parent="1" source="U4I8RHW-6Y1IPheTWrWD-2" target="ufJkwKuwfb9cW5SKuPvF-1">
          <mxGeometry relative="1" as="geometry" />
        </mxCell>
        <mxCell id="U4I8RHW-6Y1IPheTWrWD-2" value="IDb" style="rounded=0;whiteSpace=wrap;html=1;" parent="1" vertex="1">
          <mxGeometry x="920" y="345" width="120" height="60" as="geometry" />
        </mxCell>
        <mxCell id="U4I8RHW-6Y1IPheTWrWD-9" value="" style="edgeStyle=orthogonalEdgeStyle;rounded=0;orthogonalLoop=1;jettySize=auto;html=1;" parent="1" source="U4I8RHW-6Y1IPheTWrWD-3" target="U4I8RHW-6Y1IPheTWrWD-2" edge="1">
          <mxGeometry relative="1" as="geometry" />
        </mxCell>
        <mxCell id="U4I8RHW-6Y1IPheTWrWD-3" value="FileSystemDb" style="rounded=0;whiteSpace=wrap;html=1;" parent="1" vertex="1">
          <mxGeometry x="1080" y="440" width="120" height="60" as="geometry" />
        </mxCell>
        <mxCell id="U4I8RHW-6Y1IPheTWrWD-8" style="edgeStyle=orthogonalEdgeStyle;rounded=0;orthogonalLoop=1;jettySize=auto;html=1;entryX=0;entryY=0.5;entryDx=0;entryDy=0;" parent="1" source="U4I8RHW-6Y1IPheTWrWD-5" target="U4I8RHW-6Y1IPheTWrWD-2" edge="1">
          <mxGeometry relative="1" as="geometry" />
        </mxCell>
        <mxCell id="U4I8RHW-6Y1IPheTWrWD-5" value="IRepository" style="rounded=0;whiteSpace=wrap;html=1;" parent="1" vertex="1">
          <mxGeometry x="680" y="345" width="120" height="60" as="geometry" />
        </mxCell>
        <mxCell id="U4I8RHW-6Y1IPheTWrWD-7" style="edgeStyle=orthogonalEdgeStyle;rounded=0;orthogonalLoop=1;jettySize=auto;html=1;entryX=0.5;entryY=1;entryDx=0;entryDy=0;" parent="1" source="U4I8RHW-6Y1IPheTWrWD-6" target="U4I8RHW-6Y1IPheTWrWD-5" edge="1">
          <mxGeometry relative="1" as="geometry" />
        </mxCell>
        <mxCell id="U4I8RHW-6Y1IPheTWrWD-6" value="Repository" style="rounded=0;whiteSpace=wrap;html=1;" parent="1" vertex="1">
          <mxGeometry x="680" y="445" width="120" height="60" as="geometry" />
        </mxCell>
        <mxCell id="U4I8RHW-6Y1IPheTWrWD-15" value="" style="edgeStyle=orthogonalEdgeStyle;rounded=0;orthogonalLoop=1;jettySize=auto;html=1;" parent="1" source="U4I8RHW-6Y1IPheTWrWD-12" target="U4I8RHW-6Y1IPheTWrWD-5" edge="1">
          <mxGeometry relative="1" as="geometry" />
        </mxCell>
        <mxCell id="U4I8RHW-6Y1IPheTWrWD-12" value="IBusinessService" style="rounded=0;whiteSpace=wrap;html=1;" parent="1" vertex="1">
          <mxGeometry x="440" y="345" width="120" height="60" as="geometry" />
        </mxCell>
        <mxCell id="U4I8RHW-6Y1IPheTWrWD-14" value="" style="edgeStyle=orthogonalEdgeStyle;rounded=0;orthogonalLoop=1;jettySize=auto;html=1;" parent="1" source="U4I8RHW-6Y1IPheTWrWD-13" target="U4I8RHW-6Y1IPheTWrWD-12" edge="1">
          <mxGeometry relative="1" as="geometry" />
        </mxCell>
        <mxCell id="U4I8RHW-6Y1IPheTWrWD-13" value="BusinessService" style="rounded=0;whiteSpace=wrap;html=1;" parent="1" vertex="1">
          <mxGeometry x="440" y="445" width="120" height="60" as="geometry" />
        </mxCell>
        <mxCell id="ufJkwKuwfb9cW5SKuPvF-1" value="Models" style="rounded=0;whiteSpace=wrap;html=1;" vertex="1" parent="1">
          <mxGeometry x="680" y="160" width="120" height="60" as="geometry" />
        </mxCell>
        <mxCell id="ufJkwKuwfb9cW5SKuPvF-4" style="edgeStyle=orthogonalEdgeStyle;rounded=0;orthogonalLoop=1;jettySize=auto;html=1;entryX=0.5;entryY=0;entryDx=0;entryDy=0;" edge="1" parent="1" source="ufJkwKuwfb9cW5SKuPvF-3" target="ufJkwKuwfb9cW5SKuPvF-1">
          <mxGeometry relative="1" as="geometry" />
        </mxCell>
        <mxCell id="ufJkwKuwfb9cW5SKuPvF-3" value="IDbWriter" style="rounded=0;whiteSpace=wrap;html=1;" vertex="1" parent="1">
          <mxGeometry x="680" y="40" width="120" height="60" as="geometry" />
        </mxCell>
        <mxCell id="ufJkwKuwfb9cW5SKuPvF-6" value="" style="edgeStyle=orthogonalEdgeStyle;rounded=0;orthogonalLoop=1;jettySize=auto;html=1;" edge="1" parent="1" source="ufJkwKuwfb9cW5SKuPvF-5" target="ufJkwKuwfb9cW5SKuPvF-3">
          <mxGeometry relative="1" as="geometry" />
        </mxCell>
        <mxCell id="ufJkwKuwfb9cW5SKuPvF-5" value="FileSystemDbWriter" style="rounded=0;whiteSpace=wrap;html=1;" vertex="1" parent="1">
          <mxGeometry x="520" y="40" width="120" height="60" as="geometry" />
        </mxCell>
        <mxCell id="ufJkwKuwfb9cW5SKuPvF-8" style="edgeStyle=orthogonalEdgeStyle;rounded=0;orthogonalLoop=1;jettySize=auto;html=1;exitX=0;exitY=0.5;exitDx=0;exitDy=0;entryX=1;entryY=0.5;entryDx=0;entryDy=0;" edge="1" parent="1" source="ufJkwKuwfb9cW5SKuPvF-7" target="U4I8RHW-6Y1IPheTWrWD-2">
          <mxGeometry relative="1" as="geometry" />
        </mxCell>
        <mxCell id="ufJkwKuwfb9cW5SKuPvF-7" value="SqlServerDb" style="rounded=0;whiteSpace=wrap;html=1;" vertex="1" parent="1">
          <mxGeometry x="1080" y="345" width="120" height="60" as="geometry" />
        </mxCell>
        <mxCell id="ufJkwKuwfb9cW5SKuPvF-12" style="edgeStyle=orthogonalEdgeStyle;rounded=0;orthogonalLoop=1;jettySize=auto;html=1;exitX=1;exitY=0.5;exitDx=0;exitDy=0;entryX=0;entryY=0.5;entryDx=0;entryDy=0;" edge="1" parent="1" source="ufJkwKuwfb9cW5SKuPvF-9" target="U4I8RHW-6Y1IPheTWrWD-12">
          <mxGeometry relative="1" as="geometry" />
        </mxCell>
        <mxCell id="ufJkwKuwfb9cW5SKuPvF-9" value="Console App" style="rounded=0;whiteSpace=wrap;html=1;" vertex="1" parent="1">
          <mxGeometry x="200" y="260" width="120" height="60" as="geometry" />
        </mxCell>
        <mxCell id="ufJkwKuwfb9cW5SKuPvF-13" style="edgeStyle=orthogonalEdgeStyle;rounded=0;orthogonalLoop=1;jettySize=auto;html=1;entryX=0;entryY=0.5;entryDx=0;entryDy=0;" edge="1" parent="1" source="ufJkwKuwfb9cW5SKuPvF-10" target="U4I8RHW-6Y1IPheTWrWD-12">
          <mxGeometry relative="1" as="geometry" />
        </mxCell>
        <mxCell id="ufJkwKuwfb9cW5SKuPvF-10" value="Web App" style="rounded=0;whiteSpace=wrap;html=1;" vertex="1" parent="1">
          <mxGeometry x="200" y="360" width="120" height="60" as="geometry" />
        </mxCell>
        <mxCell id="ufJkwKuwfb9cW5SKuPvF-14" style="edgeStyle=orthogonalEdgeStyle;rounded=0;orthogonalLoop=1;jettySize=auto;html=1;exitX=1;exitY=0.5;exitDx=0;exitDy=0;entryX=0;entryY=0.5;entryDx=0;entryDy=0;" edge="1" parent="1" source="ufJkwKuwfb9cW5SKuPvF-11" target="U4I8RHW-6Y1IPheTWrWD-12">
          <mxGeometry relative="1" as="geometry" />
        </mxCell>
        <mxCell id="ufJkwKuwfb9cW5SKuPvF-11" value="WPF App" style="rounded=0;whiteSpace=wrap;html=1;" vertex="1" parent="1">
          <mxGeometry x="200" y="460" width="120" height="60" as="geometry" />
        </mxCell>
        <mxCell id="ufJkwKuwfb9cW5SKuPvF-17" style="edgeStyle=orthogonalEdgeStyle;rounded=0;orthogonalLoop=1;jettySize=auto;html=1;entryX=0.5;entryY=0;entryDx=0;entryDy=0;" edge="1" parent="1" source="ufJkwKuwfb9cW5SKuPvF-16" target="U4I8RHW-6Y1IPheTWrWD-2">
          <mxGeometry relative="1" as="geometry" />
        </mxCell>
        <mxCell id="ufJkwKuwfb9cW5SKuPvF-16" value="NoSqlDb" style="rounded=0;whiteSpace=wrap;html=1;" vertex="1" parent="1">
          <mxGeometry x="1080" y="240" width="120" height="60" as="geometry" />
        </mxCell>
      </root>
    </mxGraphModel>
  </diagram>
</mxfile>
